<svg width="133" height="56" viewBox="0 0 133 56" fill="none" xmlns="http://www.w3.org/2000/svg">
<g id="Group 227">
<path id="Vector" fill-rule="evenodd" clip-rule="evenodd" d="M133.001 28.5925C133.001 19.1347 128.419 11.6719 119.664 11.6719C110.871 11.6719 105.551 19.1347 105.551 28.5186C105.551 39.6389 111.831 45.2544 120.846 45.2544C125.242 45.2544 128.567 44.2569 131.079 42.8531V35.4641C128.567 36.7203 125.686 37.4961 122.028 37.4961C118.444 37.4961 115.267 36.24 114.861 31.8805H132.927C132.927 31.4003 133.001 29.4791 133.001 28.5925ZM114.75 25.0827C114.75 20.908 117.299 19.1716 119.627 19.1716C121.88 19.1716 124.282 20.908 124.282 25.0827H114.75Z" fill="#9FA0A2"/>
<path id="Vector_2" fill-rule="evenodd" clip-rule="evenodd" d="M91.2906 11.6719C87.67 11.6719 85.3425 13.3713 84.0495 14.5535L83.5692 12.263H75.4414V55.3403L84.6775 53.3822L84.7145 42.9269C86.0445 43.8875 88.0025 45.2544 91.2537 45.2544C97.8667 45.2544 103.889 39.9344 103.889 28.223C103.852 17.5091 97.7559 11.6719 91.2906 11.6719ZM89.0739 37.1266C86.8942 37.1266 85.6011 36.3508 84.7145 35.3903L84.6775 21.6838C85.6381 20.6124 86.9681 19.8736 89.0739 19.8736C92.4359 19.8736 94.7634 23.6419 94.7634 28.4816C94.7634 33.4322 92.4728 37.1266 89.0739 37.1266Z" fill="#9FA0A2"/>
<path id="Vector_3" fill-rule="evenodd" clip-rule="evenodd" d="M62.7305 9.49474L72.0035 7.49974V0L62.7305 1.95806V9.49474Z" fill="#9FA0A2"/>
<path id="Vector_4" d="M72.0035 12.3047H62.7305V44.6311H72.0035V12.3047Z" fill="#9FA0A2"/>
<path id="Vector_5" fill-rule="evenodd" clip-rule="evenodd" d="M52.7938 15.0376L52.2027 12.3038H44.2227V44.6302H53.4588V22.7221C55.6385 19.8774 59.333 20.3946 60.4782 20.801V12.3038C59.296 11.8604 54.9735 11.0476 52.7938 15.0376Z" fill="#9FA0A2"/>
<path id="Vector_6" fill-rule="evenodd" clip-rule="evenodd" d="M34.3209 4.28516L25.3065 6.20627L25.2695 35.7988C25.2695 41.2666 29.3704 45.2936 34.8382 45.2936C37.8676 45.2936 40.0843 44.7394 41.3035 44.0744V36.5747C40.1212 37.055 34.284 38.7544 34.284 33.2866V20.1713H41.3035V12.3021H34.284L34.3209 4.28516Z" fill="#9FA0A2"/>
<path id="Vector_7" fill-rule="evenodd" clip-rule="evenodd" d="M9.34697 21.6838C9.34697 20.243 10.5292 19.6888 12.4873 19.6888C15.295 19.6888 18.8417 20.5386 21.6495 22.0533V13.3713C18.5831 12.1522 15.5536 11.6719 12.4873 11.6719C4.98751 11.6719 0 15.588 0 22.1272C0 32.3239 14.0389 30.6983 14.0389 35.0947C14.0389 36.7942 12.5611 37.3483 10.4922 37.3483C7.42585 37.3483 3.50973 36.0922 0.406389 34.3928V43.1856C3.84223 44.6633 7.31502 45.2914 10.4922 45.2914C18.1767 45.2914 23.4598 41.4861 23.4598 34.873C23.4228 23.8636 9.34697 25.8216 9.34697 21.6838Z" fill="#9FA0A2"/>
</g>
</svg>
