<svg width="132" height="50" viewBox="0 0 132 50" fill="none" xmlns="http://www.w3.org/2000/svg">
<g id="Group">
<path id="Vector" d="M116.678 7.305C108.56 7.305 101.954 13.9397 101.954 22.0959C101.954 30.2521 108.56 36.8868 116.678 36.8868C124.794 36.8868 131.399 30.2521 131.399 22.0959C131.399 13.9397 124.794 7.305 116.678 7.305ZM116.678 29.877C112.409 29.877 108.931 26.3825 108.931 22.0959C108.931 17.8074 112.409 14.3148 116.678 14.3148C120.944 14.3148 124.423 17.8074 124.423 22.0959C124.423 26.3844 120.948 29.877 116.678 29.877ZM73.3204 19.1004L70.7457 17.8093C69.6279 17.2532 68.9271 16.8228 68.6453 16.5048C68.3766 16.223 68.2237 15.8505 68.2168 15.4612C68.2168 14.9623 68.4415 14.5414 68.8833 14.2139C69.3213 13.8711 69.944 13.715 70.7343 13.715C72.1797 13.715 73.7812 14.5871 75.5446 16.3448L79.8903 11.9782C78.8225 10.5241 77.4261 9.34309 75.8151 8.53138C74.2251 7.73142 72.4684 7.31901 70.6886 7.32785C68.0359 7.32785 65.8459 8.11053 64.1396 9.68731C62.4353 11.2641 61.5783 13.1589 61.5783 15.3812C61.5783 18.8281 63.8349 21.6998 68.3634 23.9793L70.7343 25.1695C72.7777 26.2035 73.7946 27.2566 73.7946 28.3459C73.7946 28.9362 73.5108 29.4466 72.9471 29.8998C72.3835 30.355 71.637 30.5702 70.7115 30.5702C69.8545 30.5702 68.8719 30.275 67.7655 29.6751C66.663 29.0849 65.6822 28.2915 64.8747 27.3366L60.5519 32.067C62.9894 35.2662 66.2401 36.8773 70.3268 36.8773C73.3985 36.8773 75.8493 36.0375 77.6661 34.3693C79.4942 32.703 80.4083 30.6159 80.4083 28.1193C80.4083 26.2473 79.9017 24.6039 78.8963 23.208C77.8812 21.8122 76.0188 20.4525 73.3204 19.1023V19.1004ZM29.6047 33.6647V7.89343H22.6158V9.61875C20.2609 8.10513 17.5198 7.30186 14.7204 7.305C6.6042 7.305 0 13.9397 0 22.0959C0 30.2521 6.6042 36.8868 14.7223 36.8868C17.4882 36.891 20.1981 36.1083 22.5358 34.6302C22.5358 34.8568 22.5244 35.0606 22.5244 35.1977C22.5244 39.4843 19.0471 42.9787 14.7795 42.9787C13.3284 42.9754 11.9078 42.5622 10.6814 41.7866L7.22502 47.8672C9.50414 49.2574 12.1212 49.9952 14.7909 50C22.909 50 29.6047 43.3634 29.6047 35.2072C29.6047 34.8911 29.6256 33.9599 29.6047 33.6647ZM14.7223 29.8751C10.4567 29.8751 6.97745 26.3825 6.97745 22.0959C6.97745 17.8074 10.4548 14.3148 14.7223 14.3148C18.9899 14.3148 22.4672 17.8074 22.4672 22.0959C22.4672 26.3825 18.9899 29.877 14.7223 29.877V29.8751ZM57.444 7.88391H50.4209V21.9455C50.4323 23.9431 50.4323 27.3918 48.966 28.8658C48.2652 29.5685 47.4977 30.2045 45.8828 30.2045C44.2566 30.2045 43.4891 29.5685 42.7902 28.8658C41.322 27.3899 41.3334 23.9317 41.3429 21.9455V7.88391H34.3217V21.9036C34.2988 24.7943 34.2645 30.1607 37.7876 33.7218C39.8537 35.809 42.316 36.8754 45.8714 36.8754C49.4287 36.8754 51.8891 35.8204 53.9553 33.7218C57.4783 30.1607 57.444 24.7829 57.4212 21.9036L57.444 7.88391ZM97.2425 28.6182C96.6789 29.0486 95.3115 30.0027 93.7652 29.7875C92.5008 29.6161 91.4743 28.6868 91.3163 25.5789V13.9187H99.5696V7.86106H91.3163V0H84.316V1.5425H84.3045V24.661C84.3045 28.3364 85.23 36.8754 93.7538 36.8754C98.0671 36.8087 100.686 34.4607 101.782 33.5428L101.929 33.4286L97.7281 28.2335C97.7167 28.2431 97.4234 28.4811 97.2425 28.6182Z" fill="#9FA0A2"/>
</g>
</svg>
