<svg width="220" height="120" viewBox="0 0 220 120" fill="none" xmlns="http://www.w3.org/2000/svg">
<g id="Group 417">
<rect id="Rectangle 182" width="220" height="120" rx="6" fill="white"/>
<g id="Group 219">
<path id="Vector" d="M66.5808 45H59.9829C59.9829 50.4303 57.4976 55.3858 53.1779 58.6499L50.5742 60.6083L60.693 74.4362H69.007L59.687 61.7062C64.0955 57.3145 66.5808 51.3798 66.5808 45Z" fill="#9FA0A2"/>
<path id="Vector_2" d="M49.7459 45H43V74.4362H49.7459V45Z" fill="#9FA0A2"/>
<path id="Vector_3" d="M77.3222 45H70.9609V74.4362H77.3222V45Z" fill="#9FA0A2"/>
<path id="Vector_4" d="M133.121 53.5156C130.695 53.5156 128.387 54.2575 126.848 56.3643V54.0794H120.812V74.4355H126.937V63.753C126.937 60.667 129.008 59.1536 131.493 59.1536C134.156 59.1536 135.695 60.756 135.695 63.7233V74.4652H141.76V61.4978C141.76 56.75 138.003 53.5156 133.121 53.5156Z" fill="#9FA0A2"/>
<path id="Vector_5" d="M96.551 54.0794V55.3851C94.8349 54.1981 92.7638 53.5156 90.5152 53.5156C84.5978 53.5156 79.8047 58.3227 79.8047 64.2575C79.8047 70.1922 84.5978 74.9993 90.5152 74.9993C92.7638 74.9993 94.8349 74.3168 96.551 73.1299V74.4355H102.616V54.0794H96.551ZM91.0182 69.48C87.9707 69.48 85.515 67.1358 85.515 64.2575C85.515 61.3791 87.9707 59.0349 91.0182 59.0349C94.0657 59.0349 96.5214 61.3791 96.5214 64.2575C96.5214 67.1358 94.0657 69.48 91.0182 69.48Z" fill="#9FA0A2"/>
<path id="Vector_6" d="M112.026 56.7191V54.0781H105.812V74.4342H112.055V64.9387C112.055 61.7339 115.517 60.0128 117.914 60.0128C117.943 60.0128 117.973 60.0128 117.973 60.0128V54.0781C115.517 54.0781 113.239 55.1464 112.026 56.7191Z" fill="#9FA0A2"/>
<path id="Vector_7" d="M160.637 54.0794V55.3851C158.921 54.1981 156.85 53.5156 154.601 53.5156C148.684 53.5156 143.891 58.3227 143.891 64.2575C143.891 70.1922 148.684 74.9993 154.601 74.9993C156.85 74.9993 158.921 74.3168 160.637 73.1299V74.4355H166.702V54.0794H160.637ZM155.104 69.48C152.057 69.48 149.601 67.1358 149.601 64.2575C149.601 61.3791 152.057 59.0349 155.104 59.0349C158.152 59.0349 160.607 61.3791 160.607 64.2575C160.637 67.1358 158.152 69.48 155.104 69.48Z" fill="#9FA0A2"/>
<path id="Vector_8" d="M171.407 54.674C171.407 54.3773 171.2 54.1992 170.875 54.1992H170.312V55.7422H170.579V55.1784H170.875L171.111 55.7422H171.407L171.141 55.1191C171.318 55.0301 171.407 54.8817 171.407 54.674ZM170.875 54.9114H170.579V54.4366H170.875C171.052 54.4366 171.141 54.5256 171.141 54.674C171.141 54.8224 171.082 54.9114 170.875 54.9114Z" fill="#9FA0A2"/>
<path id="Vector_9" d="M170.786 53.5469C169.987 53.5469 169.336 54.1997 169.336 55.0009C169.366 55.8021 169.987 56.4549 170.786 56.4549C171.585 56.4549 172.235 55.8021 172.235 55.0009C172.235 54.1997 171.585 53.5469 170.786 53.5469ZM170.786 56.1878C170.135 56.1878 169.632 55.6537 169.632 55.0009C169.632 54.3481 170.164 53.8139 170.786 53.8139C171.437 53.8139 171.94 54.3481 171.94 55.0009C171.94 55.6537 171.407 56.1878 170.786 56.1878Z" fill="#9FA0A2"/>
<path id="Vector_10" d="M173.184 67.2266C171.083 67.2266 169.367 68.9476 169.367 71.0545C169.367 73.1613 171.083 74.8823 173.184 74.8823C175.285 74.8823 177.001 73.1613 177.001 71.0545C177.001 68.918 175.285 67.2266 173.184 67.2266Z" fill="#9FA0A2"/>
</g>
</g>
</svg>
