<svg width="140" height="53" viewBox="0 0 140 53" fill="none" xmlns="http://www.w3.org/2000/svg">
<g id="Group 220">
<path id="Vector" fill-rule="evenodd" clip-rule="evenodd" d="M73.6092 17.9651C72.4348 16.9835 70.4303 16.4933 67.5948 16.4933H61.1992V36.1342H65.9814V29.9785H68.1237C70.7237 29.9785 72.6303 29.4098 73.8437 28.2714C75.2103 26.9961 75.8981 25.2979 75.8981 23.1779C75.8981 20.9795 75.1348 19.2416 73.6092 17.9651ZM68.0048 25.5342H65.9814V20.9376H67.7992C70.0103 20.9376 71.1159 21.7083 71.1159 23.2497C71.1159 24.7712 70.0781 25.5342 68.0048 25.5342ZM84.0814 16.4922H79.0948V36.1331H89.8614V31.6877H84.0814V16.4922ZM99.6314 16.4922L91.7981 36.1331H97.167L98.1937 33.2777H105L105.939 36.1331H111.368L103.59 16.4922H99.6314ZM99.5725 29.3016L101.627 22.5883L103.649 29.3016H99.5725Z" fill="#9FA0A2"/>
<path id="Vector_2" fill-rule="evenodd" clip-rule="evenodd" d="M113.859 36.1305H118.847V16.4896H113.859V36.1305ZM138.211 20.1709C137.581 19.2631 136.772 18.4919 135.833 17.9041C134.328 16.9611 132.273 16.4907 129.672 16.4907H123.101V36.1305H130.788C133.566 36.1305 135.794 35.2284 137.477 33.422C139.159 31.6167 139.999 29.2207 139.999 26.2361C139.999 23.8621 139.403 21.8404 138.211 20.1709ZM130.23 31.6841H128.089V20.9361H130.26C131.786 20.9361 132.958 21.4109 133.78 22.3572C134.602 23.3034 135.013 24.6461 135.013 26.3841C135.013 29.9174 133.419 31.6841 130.23 31.6841ZM20.7078 0L4.54444 4.20687L0.09 20.3597L5.66111 26.044L0 31.6344L4.19222 47.8579L20.2856 52.3265L25.9478 46.735L31.5189 52.4181L47.6822 48.2112L52.1356 32.0573L46.5656 26.3752L52.2267 20.7848L48.0344 4.56021L31.9389 0.0916458L26.2789 5.68204L20.7078 0ZM10.7889 7.314L19.3033 5.09683L23.0267 8.89517L17.5967 14.257L10.7889 7.314ZM29.48 8.94596L33.2633 5.21056L41.7411 7.56465L34.8222 14.3961L29.48 8.94596ZM5.19111 19.0336L7.53667 10.526L14.3422 17.469L8.91333 22.8309L5.19111 19.0325V19.0336ZM38.0211 17.6611L44.94 10.8275L47.1467 19.3737L43.3644 23.1102L38.0211 17.6611ZM20.7967 17.5209L26.2267 12.1591L31.5678 17.6092L26.1389 22.9711L20.7967 17.5209ZM12.1144 26.0948L17.5433 20.7329L22.8878 26.1831L17.4567 31.5449L12.1144 26.0948ZM29.34 26.235L34.7689 20.8732L40.1111 26.3233L34.6811 31.6852L29.34 26.235ZM5.07778 33.0444L8.86222 29.3068L14.2033 34.7581L7.28667 41.5884L5.07778 33.0444ZM20.6567 34.8089L26.0867 29.447L31.4289 34.8972L26 40.259L20.6567 34.8089ZM37.8811 34.9502L43.3111 29.5884L47.0344 33.3856L44.69 41.8932L37.8811 34.9502ZM10.4856 44.8546L17.4033 38.0209L22.7478 43.471L18.9633 47.2086L10.4856 44.8546ZM29.2 43.5229L34.6289 38.1611L41.4356 45.1052L32.9222 47.3213L29.2 43.5229Z" fill="#9FA0A2"/>
</g>
</svg>
