<svg width="185" height="24" viewBox="0 0 185 24" fill="none" xmlns="http://www.w3.org/2000/svg">
<g id="Group 221">
<path id="Vector" d="M137.262 18.918C138.27 18.918 139.088 18.0864 139.088 17.0606C139.088 16.0347 138.27 15.2031 137.262 15.2031C136.254 15.2031 135.438 16.0347 135.438 17.0606C135.438 18.0864 136.254 18.918 137.262 18.918Z" fill="#9FA0A2"/>
<path id="Vector_2" d="M32.2653 18.4301C31.4488 18.088 30.7284 17.5992 30.2001 16.9637C29.6237 16.3283 29.1915 15.5951 28.8552 14.7641C28.519 13.9332 28.375 13.0045 28.375 12.0269C28.375 11.0493 28.519 10.1206 28.8072 9.28961C29.0954 8.45865 29.5277 7.67657 30.104 7.09001C30.6804 6.45457 31.3528 5.96578 32.1212 5.62362C32.9377 5.28146 33.8023 5.08594 34.8109 5.08594C35.6754 5.08594 36.3958 5.1837 37.0682 5.4281C37.7407 5.6725 38.317 6.01466 38.8453 6.40569C39.3736 6.79673 39.7579 7.33441 40.0461 7.92097C40.3823 8.50753 40.5744 9.19185 40.6704 9.87616H37.3084C37.2123 9.28961 36.9242 8.80081 36.4919 8.40977C36.0596 8.01873 35.5313 7.82321 34.9069 7.82321C33.8503 7.82321 33.0818 8.21425 32.5535 8.94745C32.0252 9.68064 31.785 10.7071 31.785 11.978C31.785 13.2489 32.0252 14.2265 32.5535 15.0085C33.0338 15.7906 33.8503 16.1328 34.9069 16.1328C35.6274 16.1328 36.2037 15.9373 36.636 15.5951C37.0682 15.2041 37.3564 14.6664 37.5005 13.8843H40.8626C40.8145 14.5686 40.6224 15.2529 40.3342 15.8395C40.0461 16.4261 39.6618 16.9637 39.1335 17.4525C38.6532 17.8925 38.0288 18.2835 37.3564 18.5279C36.636 18.7723 35.8675 18.9189 35.003 18.9189C33.9944 18.9678 33.0818 18.7723 32.2653 18.4301Z" fill="#9FA0A2"/>
<path id="Vector_3" d="M46.2416 7.08938C46.7219 6.40506 47.2502 5.86738 47.8266 5.52522C48.4029 5.18306 49.1234 4.98754 50.0359 4.98754C50.7083 4.98754 51.3327 5.13418 51.861 5.37858C52.3894 5.62298 52.8697 5.96514 53.2539 6.40506C53.6381 6.84498 53.9263 7.38265 54.1664 7.96921C54.4066 8.55577 54.5027 9.24009 54.5027 9.97329V18.5761H51.0445V10.4621C51.0445 9.72889 50.8524 9.14233 50.4682 8.70241C50.084 8.26249 49.5076 8.01809 48.7872 8.01809C48.0187 8.01809 47.3943 8.31137 46.914 8.84905C46.4337 9.38673 46.1456 10.1199 46.1456 11.0486V18.5761H42.6875V0.148438H46.1456V7.08938H46.2416Z" fill="#9FA0A2"/>
<path id="Vector_4" d="M60.1704 18.4282C59.3539 18.0861 58.6335 17.5973 58.0571 16.9618C57.4808 16.3264 57.0485 15.5932 56.7603 14.7134C56.4722 13.8335 56.3281 12.9537 56.3281 11.9761C56.3281 10.9985 56.4722 10.0698 56.8084 9.23882C57.1446 8.40786 57.5768 7.67467 58.1052 7.03923C58.6815 6.40379 59.3539 5.91499 60.1224 5.57283C60.8909 5.23068 61.7554 5.03516 62.716 5.03516C63.7726 5.03516 64.6852 5.23068 65.4536 5.62171C66.2701 6.01275 66.8945 6.55043 67.4709 7.23475C67.9992 7.91907 68.4314 8.7989 68.7196 9.72762C69.0078 10.7052 69.1519 11.7806 69.1519 12.9537H59.7382C59.8822 13.9802 60.2184 14.8111 60.7468 15.3977C61.2751 15.9842 62.0436 16.2775 63.0522 16.2775C63.7246 16.2775 64.2529 16.1309 64.6852 15.8376C65.0694 15.5443 65.4056 15.1533 65.5497 14.6645H68.9598C68.8637 15.251 68.6236 15.7887 68.3354 16.3264C67.9992 16.8641 67.6149 17.304 67.1347 17.695C66.6544 18.0861 66.03 18.4282 65.3576 18.6237C64.6852 18.8681 63.9167 18.9659 63.1002 18.9659C61.9955 18.9659 61.0349 18.7704 60.1704 18.4282ZM60.6987 8.45674C60.2184 8.94554 59.9303 9.67874 59.7382 10.5097H65.5017C65.4536 9.67874 65.1655 8.99442 64.6852 8.45674C64.2049 7.91907 63.5325 7.67467 62.764 7.67467C61.8514 7.72355 61.179 7.96795 60.6987 8.45674Z" fill="#9FA0A2"/>
<path id="Vector_5" d="M74.2927 18.4301C73.4762 18.088 72.7558 17.5992 72.2275 16.9637C71.6511 16.3283 71.2188 15.5951 70.8826 14.7641C70.5464 13.9332 70.4023 13.0045 70.4023 12.0269C70.4023 11.0493 70.5464 10.1206 70.8346 9.28961C71.1228 8.45865 71.555 7.67657 72.1314 7.09001C72.7077 6.45457 73.3802 5.96578 74.1486 5.62362C74.9651 5.28146 75.8296 5.08594 76.8383 5.08594C77.7028 5.08594 78.4232 5.1837 79.0956 5.4281C79.768 5.6725 80.3444 6.01466 80.8727 6.40569C81.401 6.79673 81.7853 7.33441 82.0734 7.92097C82.4096 8.50753 82.6018 9.19185 82.6978 9.87616H79.3358C79.2397 9.28961 78.9515 8.80081 78.5193 8.40977C78.087 8.01873 77.5587 7.82321 76.9343 7.82321C75.8777 7.82321 75.1092 8.21425 74.5809 8.94745C74.0526 9.68064 73.8124 10.7071 73.8124 11.978C73.8124 13.2489 74.0526 14.2265 74.5809 15.0085C75.0612 15.7906 75.8777 16.1328 76.9343 16.1328C77.6548 16.1328 78.2311 15.9373 78.6634 15.5951C79.0956 15.2041 79.3838 14.6664 79.5279 13.8843H82.8419C82.7939 14.5686 82.6018 15.2529 82.3136 15.8395C82.0254 16.4261 81.6412 16.9637 81.1129 17.4525C80.6326 17.8925 80.0082 18.2835 79.3358 18.5279C78.6153 18.7723 77.8469 18.9189 76.9823 18.9189C76.0218 18.9678 75.1092 18.7723 74.2927 18.4301Z" fill="#9FA0A2"/>
<path id="Vector_6" d="M88.1757 14.1281V18.5761H84.7656V0.148438H88.1757V10.3643L92.7865 5.37858H96.917L92.1141 10.4132L97.4933 18.5761H93.3148L89.6646 12.5639L88.1757 14.1281Z" fill="#9FA0A2"/>
<path id="Vector_7" d="M101.284 18.4301C100.468 18.088 99.7475 17.5992 99.1231 16.9637C98.5468 16.3283 98.0665 15.5951 97.7303 14.7641C97.3941 13.9332 97.25 13.0045 97.25 12.0269C97.25 11.0493 97.3941 10.1206 97.7303 9.2896C98.0665 8.45865 98.5468 7.67657 99.1231 7.09001C99.6995 6.45457 100.42 5.96577 101.284 5.62362C102.101 5.28146 103.013 5.08594 104.022 5.08594C105.031 5.08594 105.943 5.28146 106.76 5.62362C107.576 5.96577 108.297 6.45457 108.921 7.09001C109.497 7.72545 109.978 8.45865 110.314 9.2896C110.65 10.1206 110.794 11.0493 110.794 12.0269C110.794 13.0045 110.65 13.9332 110.314 14.7641C109.978 15.5951 109.497 16.3772 108.921 16.9637C108.345 17.5992 107.624 18.088 106.76 18.4301C105.943 18.7723 105.031 18.9678 104.022 18.9678C103.013 18.9678 102.101 18.7723 101.284 18.4301ZM106.472 15.1063C107.048 14.3242 107.336 13.2978 107.336 11.978C107.336 10.6582 107.048 9.63176 106.472 8.84969C105.895 8.06761 105.079 7.62769 104.022 7.62769C102.965 7.62769 102.149 8.01873 101.573 8.84969C100.996 9.63176 100.708 10.7071 100.708 11.978C100.708 13.2489 100.996 14.3242 101.573 15.1063C102.149 15.8884 102.965 16.2794 104.022 16.2794C105.079 16.2794 105.895 15.8884 106.472 15.1063Z" fill="#9FA0A2"/>
<path id="Vector_8" d="M120.879 17.0123H120.783C120.351 17.5989 119.823 18.0877 119.294 18.4298C118.718 18.772 117.998 18.9186 117.085 18.9186C115.644 18.9186 114.539 18.4787 113.723 17.6477C112.954 16.7679 112.57 15.6437 112.57 14.1773V5.37891H115.98V13.5907C115.98 14.3728 116.172 14.9594 116.509 15.3504C116.845 15.7414 117.421 15.9858 118.142 15.9858C118.958 15.9858 119.583 15.6926 120.063 15.1549C120.543 14.6172 120.783 13.884 120.783 13.0042V5.37891H124.241V18.5765H120.927V17.0123H120.879Z" fill="#9FA0A2"/>
<path id="Vector_9" d="M127.558 5.37744V1.22266H130.92V5.37744H133.13V7.67479H130.92V14.6646C130.92 15.1534 131.016 15.4956 131.257 15.6911C131.497 15.8866 131.785 15.9844 132.217 15.9844H132.89C132.986 15.9844 133.13 15.9844 133.226 15.9355V18.575C133.034 18.575 132.89 18.6239 132.649 18.6239C132.457 18.6239 132.217 18.6728 131.977 18.6728H131.064C130.632 18.6728 130.248 18.6239 129.816 18.5261C129.383 18.4284 129.047 18.2817 128.711 18.0373C128.375 17.7929 128.087 17.4508 127.895 17.0597C127.702 16.6687 127.558 16.131 127.558 15.4956V7.67479H125.781V5.37744H127.558Z" fill="#9FA0A2"/>
<path id="Vector_10" d="M144.082 18.3795C143.362 18.0373 142.737 17.5485 142.209 16.9131C141.681 16.2776 141.296 15.5444 141.056 14.7135C140.816 13.8825 140.672 12.9538 140.672 11.9273C140.672 10.9008 140.816 10.021 141.056 9.14117C141.344 8.31021 141.729 7.52813 142.209 6.94157C142.737 6.30614 143.362 5.81734 144.082 5.47518C144.802 5.13302 145.667 4.9375 146.628 4.9375C148.068 4.9375 149.269 5.32854 150.182 6.06174C151.094 6.79493 151.671 7.87029 151.911 9.23892H150.374C150.182 8.26133 149.797 7.47925 149.125 6.99045C148.501 6.50165 147.684 6.25726 146.676 6.25726C145.907 6.25726 145.283 6.40389 144.706 6.69717C144.178 6.99045 143.698 7.38149 143.362 7.91917C143.025 8.40797 142.737 9.04341 142.593 9.72772C142.401 10.412 142.353 11.1452 142.353 11.9273C142.353 12.7094 142.449 13.4426 142.641 14.1269C142.833 14.8112 143.073 15.3978 143.458 15.9355C143.794 16.4731 144.274 16.8642 144.802 17.1575C145.331 17.4507 146.003 17.5974 146.724 17.5974C147.828 17.5974 148.741 17.2552 149.413 16.6198C150.086 15.9843 150.47 15.1045 150.614 14.0291H152.103C151.959 15.5444 151.43 16.7175 150.47 17.6463C149.557 18.5261 148.309 18.966 146.724 18.966C145.667 18.9171 144.802 18.7216 144.082 18.3795Z" fill="#9FA0A2"/>
<path id="Vector_11" d="M156.906 18.3795C156.137 18.0373 155.513 17.5485 154.985 16.9131C154.456 16.2776 154.072 15.5444 153.784 14.7135C153.496 13.8825 153.352 12.9538 153.352 11.9273C153.352 10.9008 153.496 10.021 153.784 9.14117C154.072 8.31021 154.456 7.52813 154.985 6.94157C155.513 6.30614 156.137 5.81734 156.906 5.47518C157.674 5.13302 158.491 4.9375 159.451 4.9375C160.412 4.9375 161.228 5.13302 161.997 5.47518C162.717 5.81734 163.39 6.30614 163.918 6.94157C164.446 7.57701 164.831 8.31021 165.119 9.14117C165.407 9.97212 165.503 10.9008 165.503 11.9273C165.503 12.9538 165.359 13.8336 165.119 14.7135C164.831 15.5444 164.446 16.3265 163.918 16.9131C163.39 17.5485 162.765 18.0373 161.997 18.3795C161.276 18.7216 160.412 18.9171 159.451 18.9171C158.539 18.9171 157.674 18.7216 156.906 18.3795ZM161.373 17.1575C161.949 16.8642 162.381 16.4731 162.765 15.9355C163.15 15.3978 163.438 14.8112 163.582 14.1269C163.774 13.4426 163.87 12.7094 163.87 11.9273C163.87 11.1452 163.774 10.412 163.582 9.72772C163.39 9.04341 163.102 8.45685 162.765 7.91917C162.381 7.38149 161.949 6.99045 161.373 6.69717C160.796 6.40389 160.172 6.25726 159.451 6.25726C158.731 6.25726 158.058 6.40389 157.53 6.69717C157.002 6.99045 156.522 7.38149 156.137 7.91917C155.753 8.45685 155.465 9.04341 155.273 9.72772C155.081 10.412 154.985 11.1452 154.985 11.9273C154.985 12.7094 155.081 13.4426 155.273 14.1269C155.465 14.8112 155.753 15.3978 156.137 15.9355C156.522 16.4731 157.002 16.8642 157.53 17.1575C158.058 17.4507 158.731 17.5974 159.451 17.5974C160.172 17.5974 160.844 17.4507 161.373 17.1575Z" fill="#9FA0A2"/>
<path id="Vector_12" d="M169.296 5.23278V7.23686H169.344C169.776 6.55254 170.305 6.01486 170.929 5.57494C171.553 5.13502 172.37 4.93951 173.33 4.93951C174.147 4.93951 174.867 5.13502 175.492 5.52606C176.116 5.9171 176.548 6.55254 176.836 7.33462H176.885C177.317 6.55254 177.893 5.96598 178.614 5.52606C179.334 5.08614 180.151 4.89062 181.063 4.89062C181.639 4.89062 182.12 4.98838 182.6 5.1839C183.08 5.37942 183.513 5.62382 183.849 5.96598C184.185 6.30814 184.473 6.74806 184.665 7.28574C184.857 7.82342 184.953 8.40998 184.953 9.04541V18.577H183.416V9.24093C183.416 8.26333 183.176 7.53014 182.648 7.04134C182.12 6.55254 181.447 6.35702 180.679 6.35702C180.199 6.35702 179.718 6.45478 179.334 6.60142C178.902 6.79694 178.518 7.04134 178.229 7.33462C177.941 7.6279 177.653 8.06781 177.461 8.50773C177.269 8.99653 177.173 9.48534 177.173 10.0719V18.577H175.588V9.24093C175.588 8.26333 175.348 7.53014 174.819 7.04134C174.339 6.55254 173.715 6.35702 172.946 6.35702C172.466 6.35702 172.034 6.45478 171.601 6.6503C171.169 6.84582 170.785 7.09022 170.401 7.43238C170.064 7.77454 169.776 8.16558 169.584 8.65438C169.392 9.0943 169.296 9.63197 169.296 10.1696V18.577H167.711V5.23278H169.296Z" fill="#9FA0A2"/>
<path id="Vector_13" d="M15.4091 12.0244L21.5568 1.07536C21.7009 0.830957 21.7009 0.586558 21.5568 0.342159C21.4127 0.146639 21.1726 0 20.9324 0H8.2527C8.01256 0 7.77241 0.146639 7.62832 0.342159L1.09635 11.6334C0.952258 11.8778 0.952258 12.1711 1.09635 12.3666L7.62832 23.6578C7.77241 23.9022 8.01256 24 8.2527 24H20.9324C21.1726 24 21.4127 23.8534 21.5568 23.6578C21.7009 23.4134 21.7009 23.169 21.5568 22.9246L15.4091 12.0244ZM14.5926 10.558L9.50146 1.4664H19.7317L14.5926 10.558ZM8.20467 2.19959L13.728 12.0244L8.20467 21.8493L2.53722 12.0244L8.20467 2.19959ZM9.50146 22.5336L14.5926 13.442L19.6837 22.5336H9.50146Z" fill="#9FA0A2"/>
</g>
</svg>
