<svg width="144" height="33" viewBox="0 0 144 33" fill="none" xmlns="http://www.w3.org/2000/svg">
<g id="Group 222">
<path id="logo0" d="M92.8756 11.7269C90.4623 9.60658 87.5491 8.57031 84.1806 8.57031C80.8587 8.57031 77.9455 9.60829 75.5304 11.7269C73.1171 13.8011 71.8906 16.6883 71.8906 20.3869C71.8906 24.0854 73.1171 26.971 75.5304 29.0912C77.9437 31.1655 80.8587 32.2034 84.1806 32.2034C87.5491 32.2034 90.4623 31.1655 92.8756 29.0912C95.3353 26.971 96.5618 24.0854 96.5618 20.3869C96.5618 16.6883 95.3336 13.8011 92.8756 11.7269ZM79.6306 25.1217C78.3577 23.9048 77.717 22.3248 77.717 20.3869C77.717 18.4473 78.3526 16.869 79.6306 15.6964C80.9033 14.4794 82.408 13.8931 84.179 13.8931C85.9516 13.8931 87.501 14.4794 88.7755 15.6964C90.093 16.869 90.7336 18.4473 90.7336 20.3869C90.7336 22.3265 90.0981 23.9048 88.7755 25.1217C87.5027 26.2943 85.9534 26.8806 84.179 26.8806C82.408 26.8806 80.9068 26.2943 79.6306 25.1217Z" fill="#9FA0A2"/>
<path id="logo1" d="M105.173 31.5694V0.621094H99.4375V31.5694H105.173Z" fill="#9FA0A2"/>
<path id="logo2" d="M123.685 9.20312V21.5515C123.685 24.5273 122.062 26.4993 118.971 26.4993C115.83 26.4993 114.25 24.5291 114.25 21.5515V9.20312H108.504V22.4991C108.504 27.6498 111.781 32.2039 118.971 32.2039H119.016C126.162 32.2039 129.434 27.5492 129.434 22.4991V9.20312H123.685Z" fill="#9FA0A2"/>
<path id="logo3" d="M65.789 9.20312L60.0536 24.3568L54.3183 9.20312H48.2188L57.3706 31.5733H62.7435L71.8936 9.20312H65.789Z" fill="#9FA0A2"/>
<path id="logo4" d="M48.2465 19.7545C48.2465 16.5076 47.2005 13.8471 45.1513 11.7269C43.102 9.60658 40.4654 8.57031 37.2327 8.57031C33.9108 8.57031 31.0868 9.69863 28.7645 11.9075C26.4869 14.1182 25.3516 16.9133 25.3516 20.3869C25.3516 23.8604 26.4886 26.7017 28.7199 28.9106C30.9976 31.1212 33.7287 32.2034 36.9596 32.2034C41.9237 32.2034 45.4278 30.0389 47.5629 25.6637L43.2858 23.2281C41.8773 25.979 39.8265 27.3323 37.0507 27.3323C33.6377 27.3323 31.2243 25.1678 30.8601 21.7402H48.2449V19.7545H48.2465ZM37.0472 12.8995C40.2782 12.8995 42.4202 14.7027 42.9646 17.59H30.8567C31.7241 14.9294 34.0877 12.8995 37.0472 12.8995Z" fill="#9FA0A2"/>
<path id="logo5" d="M25.353 31.5704L17.6578 18.2217C22.5257 16.4628 24.939 13.3966 24.939 8.93103C24.9442 3.47355 20.571 0 13.6075 0H0V31.5704H6.00847V18.762H11.1083L18.4805 31.5704H25.353ZM13.6075 5.23079C17.158 5.23079 18.934 6.62839 18.934 9.37928C18.934 12.1302 17.1563 13.5278 13.6075 13.5278H6.00847V5.23079H13.6075Z" fill="#9FA0A2"/>
<path id="logo6" d="M139.158 32.2008C135.466 32.2008 132.473 29.2335 132.473 25.5707V3.15625H138.207V9.20854H143.125V13.8087H138.207V25.206C138.207 26.2798 139.085 27.149 140.17 27.149H143.125V32.2008H139.158Z" fill="#9FA0A2"/>
</g>
</svg>
