<svg width="155" height="45" viewBox="0 0 155 45" fill="none" xmlns="http://www.w3.org/2000/svg">
<g id="Group 226">
<path id="Vector" d="M103.412 12.898C100.714 12.898 97.4771 13.8743 94.3683 17.2145C91.2594 13.8743 87.9964 12.898 85.3243 12.898C85.3243 12.898 74.9699 12.1272 74.9699 24.2287V43.8069H82.4723V25.3335C82.4723 19.9122 86.0951 19.8095 86.8145 19.9636C86.8145 19.9636 88.1248 20.0407 89.3067 21.274C89.3067 21.274 86.9172 24.4086 86.7374 28.3139C86.7374 28.3139 86.1978 38.4884 94.3683 38.4884C102.539 38.4884 101.999 28.3139 101.999 28.3139C101.819 24.3829 99.4298 21.274 99.4298 21.274C100.612 20.0407 101.922 19.9636 101.922 19.9636C102.616 19.8095 106.264 19.9122 106.264 25.3335V43.8069H113.767V24.2287C113.741 12.1015 103.412 12.898 103.412 12.898ZM94.3426 32.9644C92.7239 32.9644 92.21 30.9346 92.1843 29.0076C92.133 25.6675 94.3169 23.2524 94.3426 23.201C94.394 23.2524 96.5522 25.6675 96.5008 29.0076C96.5008 30.9346 95.9612 32.9644 94.3426 32.9644ZM70.7305 13.4119H63.2281V43.8326H70.7305V13.4119ZM66.9793 0.205546C64.4871 0.205546 62.4059 2.23531 62.4059 4.70186C62.4059 7.1941 64.4614 9.27525 66.9793 9.27525C69.4715 9.27525 71.4756 7.21979 71.4756 4.70186C71.5013 2.2867 69.4458 0.205546 66.9793 0.205546ZM39.4619 15.4416V0H32.0108V43.8069H39.4619V21.8649C51.7946 15.8784 51.3321 25.3592 51.3321 25.3592V43.8069H58.7832V25.3849C58.7832 7.5538 43.2131 13.4375 39.4619 15.4416ZM124.07 30.0867C128.078 31.4999 133.139 31.3714 133.139 31.3714C145.164 31.2943 144.83 22.5586 144.83 22.5586C144.521 12.7181 132.959 12.898 132.959 12.898C123.376 12.898 116.67 19.4755 116.67 28.8535C116.67 38.2572 123.247 44.3208 133.396 44.3208C137.713 44.3208 141.824 43.1389 144.701 41.0321V33.7866C141.695 36.3816 138.098 37.769 134.27 37.769C134.296 37.769 123.864 38.2829 124.07 30.0867ZM124.995 23.6891C126.254 20.5032 128.874 18.8331 132.6 18.8331C135.657 18.8331 137.43 20.1178 137.43 22.1732C137.43 25.0509 134.193 25.3078 131.161 25.3078C128.181 25.3078 126.331 24.9738 125.508 24.7683L124.712 24.5884L124.995 23.6891ZM16.6206 44.3208C21.9134 44.3208 25.6389 42.3167 27.8742 40.6467V33.3498C24.5855 35.9448 20.7315 37.435 17.3143 37.435C11.8417 37.435 8.01339 33.6581 8.01339 28.2368C8.01339 23.0982 11.5077 19.5012 16.4921 19.5012C18.1108 19.5012 19.5239 19.9122 21.0142 20.3233C22.5557 20.7601 24.1487 21.2483 26.0757 21.2483C26.6667 21.2483 27.2576 21.1969 27.8742 21.1198V14.1827C27.3604 14.234 26.8979 14.2854 26.384 14.2854C24.6626 14.2854 23.0953 13.9514 21.4766 13.6174C19.7552 13.2577 17.9824 12.8723 15.9012 12.8723C11.7389 12.8723 7.88492 14.3368 5.05867 17.0603C2.05256 19.9379 0.433888 23.9204 0.433888 28.5965C0.382502 37.8461 7.06274 44.3208 16.6206 44.3208ZM153.694 16.6235C153.694 16.161 153.617 15.7499 153.463 15.3645C153.309 14.9791 153.103 14.6451 152.846 14.3882C152.589 14.1056 152.281 13.9 151.947 13.7459C151.587 13.5917 151.227 13.5146 150.816 13.5146C150.405 13.5146 150.02 13.5917 149.686 13.7459C149.326 13.9 149.043 14.1056 148.786 14.3882C148.53 14.6708 148.324 14.9791 148.17 15.3645C148.016 15.7499 147.939 16.161 147.939 16.6235C147.939 17.0603 148.016 17.4457 148.144 17.8311C148.273 18.2165 148.478 18.5248 148.709 18.8074C148.966 19.0901 149.275 19.3213 149.609 19.4755C149.968 19.6296 150.354 19.7067 150.816 19.7067C151.227 19.7067 151.587 19.6296 151.947 19.4755C152.306 19.3213 152.589 19.1157 152.846 18.8331C153.103 18.5505 153.309 18.2422 153.463 17.8568C153.617 17.4971 153.694 17.086 153.694 16.6235ZM154.49 16.6235C154.49 17.1888 154.388 17.7026 154.182 18.1651C153.977 18.6276 153.72 19.013 153.386 19.347C153.052 19.681 152.666 19.9379 152.204 20.1178C151.767 20.2976 151.304 20.4004 150.816 20.4004C150.277 20.4004 149.789 20.2976 149.326 20.1178C148.889 19.9122 148.504 19.6553 148.17 19.3213C147.862 18.9873 147.605 18.6019 147.399 18.1394C147.219 17.6769 147.116 17.1888 147.116 16.6492C147.116 16.084 147.219 15.5701 147.399 15.1076C147.605 14.6451 147.862 14.2597 148.196 13.9257C148.53 13.5917 148.941 13.3348 149.377 13.1549C149.814 12.9751 150.302 12.8723 150.791 12.8723C151.279 12.8723 151.741 12.9751 152.178 13.1549C152.615 13.3348 153.026 13.5917 153.36 13.9257C153.694 14.2597 153.977 14.6451 154.156 15.1076C154.388 15.5444 154.49 16.0583 154.49 16.6235ZM150.842 16.418C150.97 16.418 151.099 16.418 151.202 16.418C151.33 16.3923 151.433 16.3666 151.51 16.3152C151.587 16.2638 151.664 16.2124 151.716 16.1353C151.767 16.0583 151.793 15.9298 151.793 15.7756C151.793 15.6472 151.767 15.5444 151.69 15.4673C151.638 15.3902 151.561 15.3389 151.484 15.2875C151.407 15.2361 151.304 15.2361 151.202 15.2104C151.099 15.1847 150.996 15.1847 150.893 15.1847H150.071V16.3923H150.842V16.418ZM150.071 18.756H149.403V14.6194H150.97C151.459 14.6194 151.844 14.7222 152.101 14.9021C152.358 15.0819 152.486 15.3902 152.486 15.8013C152.486 16.1867 152.384 16.4437 152.178 16.6235C151.972 16.8034 151.716 16.9061 151.407 16.9318L152.563 18.756H151.793L150.713 16.9832H150.071V18.756ZM151.921 13.8229C151.587 13.6688 151.227 13.5917 150.816 13.5917C150.405 13.5917 150.045 13.6688 149.711 13.8229C149.377 13.9771 149.069 14.1827 148.812 14.4396C148.555 14.6965 148.35 15.0305 148.221 15.3902C148.067 15.7499 148.016 16.161 148.016 16.6235C148.016 17.0346 148.093 17.4457 148.221 17.8054C148.35 18.1651 148.53 18.4991 148.786 18.756C149.043 19.0387 149.326 19.2442 149.686 19.3984C150.02 19.5525 150.431 19.6296 150.868 19.6296C151.253 19.6296 151.613 19.5525 151.972 19.4241C152.306 19.2699 152.615 19.0644 152.872 18.8074C153.129 18.5505 153.334 18.2165 153.463 17.8568C153.617 17.4971 153.668 17.086 153.668 16.6235C153.668 16.1867 153.591 15.7756 153.463 15.3902C153.309 15.0048 153.129 14.6965 152.872 14.4396C152.538 14.157 152.255 13.9514 151.921 13.8229ZM151.947 19.5012C151.587 19.6553 151.227 19.7324 150.816 19.7324C150.379 19.7324 149.968 19.6553 149.609 19.5012C149.249 19.347 148.941 19.1157 148.709 18.8331C148.452 18.5505 148.273 18.2165 148.144 17.8568C148.016 17.4714 147.939 17.086 147.939 16.6492C147.939 16.1867 148.016 15.7756 148.17 15.3902C148.324 15.0048 148.53 14.6708 148.786 14.4139C149.043 14.1313 149.352 13.9257 149.686 13.7716C150.045 13.6174 150.431 13.5403 150.816 13.5403C151.227 13.5403 151.587 13.6174 151.947 13.7716C152.306 13.9257 152.589 14.1313 152.846 14.4139C153.103 14.6965 153.309 15.0048 153.463 15.3902C153.617 15.7756 153.694 16.1867 153.694 16.6492C153.694 17.1117 153.617 17.5228 153.463 17.9082C153.309 18.2936 153.103 18.6019 152.846 18.8845C152.589 19.1158 152.281 19.347 151.947 19.5012ZM149.3 20.1435C148.838 19.9379 148.452 19.681 148.118 19.347C147.784 19.013 147.528 18.6019 147.348 18.1394C147.168 17.6769 147.065 17.1631 147.065 16.6235C147.065 16.0583 147.168 15.5444 147.373 15.0562C147.579 14.5937 147.862 14.1827 148.196 13.8486C148.555 13.5146 148.941 13.2577 149.403 13.0778C149.866 12.898 150.328 12.7952 150.842 12.7952C151.33 12.7952 151.818 12.898 152.255 13.0778C152.718 13.2577 153.103 13.5146 153.437 13.8486C153.797 14.1827 154.054 14.5937 154.259 15.0562C154.465 15.5187 154.567 16.0583 154.567 16.6235C154.567 17.1888 154.465 17.7026 154.259 18.1908C154.054 18.6533 153.797 19.0644 153.437 19.3984C153.103 19.7324 152.692 19.9893 152.255 20.1692C151.818 20.349 151.33 20.4518 150.842 20.4518C150.277 20.4261 149.763 20.3233 149.3 20.1435ZM152.204 20.0921C152.64 19.9122 153.052 19.6553 153.386 19.3213C153.72 18.9873 154.002 18.6019 154.182 18.1394C154.388 17.6769 154.49 17.1631 154.49 16.5978C154.49 16.0326 154.388 15.5187 154.182 15.0562C153.977 14.5937 153.72 14.2083 153.386 13.8743C153.052 13.5403 152.666 13.2834 152.204 13.1035C151.767 12.9237 151.304 12.8209 150.816 12.8209C150.328 12.8209 149.84 12.9237 149.403 13.1035C148.966 13.2834 148.555 13.5403 148.221 13.8743C147.887 14.2083 147.63 14.5937 147.425 15.0562C147.219 15.5187 147.142 16.0326 147.142 16.5978C147.142 17.1374 147.245 17.6255 147.425 18.088C147.605 18.5505 147.862 18.9359 148.196 19.2699C148.53 19.6039 148.915 19.8608 149.352 20.0664C149.814 20.2462 150.302 20.349 150.842 20.349C151.304 20.349 151.767 20.2719 152.204 20.0921ZM151.664 15.493C151.613 15.4159 151.561 15.3902 151.484 15.3388C151.407 15.3132 151.33 15.2875 151.227 15.2875C151.125 15.2618 151.022 15.2618 150.919 15.2618H150.174V16.3409H150.868C150.996 16.3409 151.099 16.3409 151.227 16.3409C151.33 16.3409 151.433 16.2895 151.51 16.2638C151.587 16.2124 151.638 16.161 151.69 16.1096C151.741 16.0326 151.767 15.9298 151.767 15.7756C151.741 15.6472 151.716 15.5444 151.664 15.493ZM151.716 16.1096C151.664 16.1867 151.587 16.2638 151.51 16.2895C151.433 16.3409 151.33 16.3666 151.202 16.3923C151.099 16.3923 150.97 16.3923 150.842 16.3923H150.071V15.1847H150.893C150.996 15.1847 151.099 15.1847 151.202 15.2104C151.304 15.2104 151.407 15.2361 151.484 15.2875C151.561 15.3389 151.638 15.3902 151.69 15.4673C151.741 15.5444 151.793 15.6472 151.793 15.7756C151.793 15.9041 151.767 16.0326 151.716 16.1096ZM150.148 18.8331H149.326V14.5424H150.97C151.484 14.5424 151.87 14.6451 152.152 14.825C152.435 15.0305 152.563 15.3645 152.563 15.8013C152.563 16.1867 152.461 16.495 152.229 16.6749C152.024 16.8291 151.793 16.9318 151.536 16.9832L152.718 18.8331H151.793L150.713 17.0603H150.174V18.8331H150.148ZM150.071 16.9832H150.713L151.793 18.756H152.563L151.407 16.9318C151.433 16.9318 151.459 16.9318 151.484 16.9318C151.767 16.8804 151.998 16.7777 152.178 16.6235C152.384 16.4437 152.486 16.1867 152.486 15.8013C152.486 15.3902 152.358 15.0819 152.101 14.9021C151.844 14.7222 151.459 14.6194 150.97 14.6194H149.403V18.756H150.071V16.9832Z" fill="#9FA0A2"/>
</g>
</svg>
