<svg width="94" height="65" viewBox="0 0 94 65" fill="none" xmlns="http://www.w3.org/2000/svg">
<g id="Group 223">
<path id="Vector" d="M23.7008 14V38.7C23.7008 40.9 23.8008 42.2 23.9008 43.5H23.8008C23.3008 42 22.6008 40.8 21.7008 39.1L7.00078 14H0.300781V50.1H5.50078V25.5C5.50078 23.3 5.40078 22 5.30078 20.7H5.40078C5.90078 22.2 6.60078 23.4 7.50078 25.1L22.1008 50.2H28.7008V14H23.7008Z" fill="#9FA0A2"/>
<path id="Vector_2" d="M83.0984 26.1016C78.7984 26.1016 75.6984 28.1016 74.1984 31.0016C74.1984 24.0016 76.5984 18.0016 82.3984 18.0016C86.0984 18.0016 87.4984 20.1016 88.2984 23.6016L93.5984 22.5016C92.2984 16.5016 88.4984 13.6016 82.3984 13.6016C74.6984 13.6016 68.8984 19.5016 68.8984 32.8016C68.8984 44.6016 73.6984 50.5016 81.9984 50.5016C88.8984 50.5016 93.9984 45.8016 93.9984 38.1016C93.9984 32.1016 90.7984 26.1016 83.0984 26.1016ZM81.9984 46.2016C77.6984 46.2016 74.7984 42.3016 74.2984 37.1016C75.5984 32.7016 78.4984 30.5016 81.8984 30.5016C86.2984 30.5016 88.6984 33.7016 88.6984 38.3016C88.6984 43.2016 85.8984 46.2016 81.9984 46.2016Z" fill="#9FA0A2"/>
<path id="Vector_3" d="M45.1992 45.4992C47.8992 43.5992 51.7992 40.4992 53.5992 38.7992C55.5992 36.7992 61.1992 31.7992 61.1992 24.5992C61.1992 17.0992 56.2992 13.6992 49.7992 13.6992C41.7992 13.6992 37.8992 18.5992 37.8992 24.1992C37.8992 25.0992 37.9992 25.9992 38.2992 27.0992L43.7992 27.5992C43.4992 26.3992 43.3992 25.3992 43.3992 24.4992C43.3992 20.2992 46.1992 18.2992 49.6992 18.2992C53.0992 18.2992 55.5992 20.1992 55.5992 24.7992C55.5992 29.3992 53.2992 32.5992 49.8992 36.0992C46.2992 39.6992 40.4992 43.9992 37.6992 45.9992V50.2992H61.6992V45.5992H45.1992V45.4992Z" fill="#9FA0A2"/>
<path id="Vector_4" d="M29.1 59.6016V64.3016H0V59.6016H29.1Z" fill="#9FA0A2"/>
<path id="Vector_5" d="M29.1 0V4.7H0V0H29.1Z" fill="#9FA0A2"/>
</g>
</svg>
