<svg width="146" height="38" viewBox="0 0 146 38" fill="none" xmlns="http://www.w3.org/2000/svg">
<g id="Group 224">
<path id="Vector" d="M98.3533 7.85294C95.7848 7.85294 93.8043 8.76613 91.9666 10.6721V8.29706H86.9225V31.6671H92.3499V18.1129C92.3499 15.01 94.2018 13.0471 97.0119 13.0471C97.5226 13.0471 97.9701 13.11 98.2891 13.1729L102.056 8.23294C100.587 7.98 99.3115 7.85294 98.3533 7.85294ZM145.159 8.29706H138.9L133.122 15.9196L127.343 8.29588H121.085L129.914 20.0723L121.085 31.6671H127.471L133.09 24.2737L138.709 31.6671H145.159L136.27 20.0913L145.159 8.29706ZM31.1775 3.04C29.3255 5.51 28.878 6.33294 27.0903 6.33294H0.398438V38H10.8712C13.2337 38 15.5321 36.86 17.0008 34.96C18.917 32.4271 19.1717 31.6671 21.0237 31.6671H47.7798V0H37.2428C34.8802 0 32.5819 1.14 31.1763 3.04H31.1775ZM39.478 23.4971H28.3031C25.8762 23.4971 23.6422 24.51 22.1735 26.4729C20.2572 29.0071 19.874 29.7671 18.0863 29.7671H8.63593V14.5671H19.8109C22.2365 14.5671 24.4718 13.4271 25.9405 11.5271C27.8568 9.05706 28.3674 8.29706 30.0908 8.29706H39.478V23.4971ZM79.5788 15.7071C81.9426 14.3771 83.6018 12.0329 83.6018 8.93C83.6018 4.37 80.0906 0 74.9822 0H59.657V31.6671H74.9822C80.537 31.6671 84.3683 27.74 84.3683 22.8C84.3683 19.8871 83.0281 17.3529 79.5788 15.7071ZM65.0844 4.94H74.5347C76.8973 4.94 78.3017 7.15706 78.3017 9.12C78.3017 11.5271 76.1951 13.1729 74.2157 13.1729H65.0844V4.94ZM74.2157 26.7271H65.0844V18.1129H74.5347C76.9615 18.1129 78.9409 20.2029 78.9409 22.3571C78.9409 24.7629 76.451 26.7271 74.2157 26.7271Z" fill="#9FA0A2"/>
<path id="Vector_2" d="M115.66 24.9516C114.766 26.3457 113.041 27.1686 111.125 27.1686C108.126 27.1686 105.635 25.1416 105.635 22.0386H121.854C122.11 21.0886 122.173 20.6457 122.173 19.8216C122.173 12.7286 117.767 7.85156 111.126 7.85156C104.612 7.85156 100.016 12.4757 100.016 20.0116C100.016 27.3586 104.421 32.1086 111.254 32.1086C116.043 32.1086 120.258 29.7657 121.47 24.9516H115.66ZM111.125 12.7916C114.127 12.7916 116.426 14.6916 116.362 17.5416H105.698C105.698 14.7557 108.126 12.7916 111.125 12.7916Z" fill="#9FA0A2"/>
</g>
</svg>
