<svg width="126" height="44" viewBox="0 0 126 44" fill="none" xmlns="http://www.w3.org/2000/svg">
<g id="Group 225">
<path id="Vector" d="M102.956 43.0568C102.771 43.0568 102.621 42.9072 102.621 42.7228V2.5078C102.621 2.34965 102.732 2.21321 102.887 2.18097L109.875 0.729785C110.082 0.686631 110.277 0.844873 110.277 1.0566V42.7228C110.277 42.9072 110.128 43.0568 109.943 43.0568H102.956Z" fill="#9FA0A2"/>
<path id="Vector_2" d="M15.1301 43.9079C12.3387 43.9079 9.84639 43.227 7.65316 41.865C5.45995 40.5029 3.72531 38.6402 2.44924 36.2766C1.17318 33.9133 0.535156 31.2294 0.535156 28.2249C0.535156 25.2206 1.17318 22.5567 2.44924 20.2333C3.72531 17.8698 5.45995 16.0271 7.65316 14.7051C9.84639 13.3431 12.3387 12.6621 15.1301 12.6621C17.3632 12.6621 19.3172 13.0827 20.992 13.924C22.3344 14.5983 23.472 15.4913 24.4044 16.6032C24.6159 16.8553 25.0594 16.7127 25.0594 16.3839V1.78514C25.0594 1.62699 25.1707 1.49055 25.3258 1.45832L32.3129 0.00712857C32.5206 -0.036025 32.7158 0.122216 32.7158 0.333947V42.8531C32.7158 43.0375 32.5658 43.1869 32.3812 43.1869H26.1722C26.0123 43.1869 25.8745 43.0738 25.8439 42.9172L25.2076 39.6756C25.1512 39.3889 24.7742 39.3039 24.5874 39.5286C23.6958 40.6017 22.5771 41.5607 21.2312 42.4057C19.676 43.4072 17.6423 43.9079 15.1301 43.9079ZM16.7451 37.1781C19.2174 37.1781 21.2312 36.3569 22.7864 34.7145C24.3814 33.032 25.179 30.8888 25.179 28.285C25.179 25.6812 24.3814 23.5582 22.7864 21.9157C21.2312 20.2333 19.2174 19.392 16.7451 19.392C14.3126 19.392 12.2988 20.2131 10.7037 21.8556C9.10867 23.498 8.31114 25.6211 8.31114 28.2249C8.31114 30.8287 9.10867 32.9719 10.7037 34.6543C12.2988 36.3368 14.3126 37.1781 16.7451 37.1781Z" fill="#9FA0A2"/>
<path id="Vector_3" d="M51.3842 43.9137C48.3936 43.9137 45.7418 43.2727 43.4289 41.991C41.116 40.7091 39.3016 38.9064 37.9856 36.583C36.6698 34.2596 36.0117 31.5757 36.0117 28.5313C36.0117 25.4467 36.6498 22.7027 37.9259 20.2992C39.2419 17.8956 41.0363 16.0329 43.3093 14.711C45.6222 13.349 48.3337 12.668 51.4441 12.668C54.3552 12.668 56.9273 13.3089 59.1602 14.5908C61.3934 15.8727 63.1281 17.6352 64.3641 19.8785C65.6403 22.0817 66.2783 24.5454 66.2783 27.2693C66.2783 27.7099 66.2583 28.1707 66.2184 28.6513C66.2184 29.0364 66.2058 29.4343 66.18 29.8451C66.1692 30.0192 66.0235 30.1536 65.8486 30.1536H43.9667C43.7728 30.1536 43.6191 30.3176 43.6382 30.5101C43.852 32.6643 44.6396 34.368 46.001 35.6217C47.4765 36.9435 49.2509 37.6045 51.3245 37.6045C52.8797 37.6045 54.1757 37.2639 55.2124 36.583C56.2269 35.9037 56.9934 35.0465 57.5124 34.0116C57.5707 33.8951 57.6888 33.819 57.8192 33.819H64.9331C65.1567 33.819 65.3175 34.0336 65.2473 34.2455C64.6781 35.9626 63.7858 37.5429 62.5697 38.9865C61.2938 40.5087 59.6987 41.7106 57.7845 42.5918C55.9104 43.4731 53.777 43.9137 51.3842 43.9137ZM51.4441 18.9172C49.57 18.9172 47.915 19.4579 46.4794 20.5395C45.1322 21.5169 44.2415 22.9884 43.8074 24.9536C43.7625 25.1573 43.9207 25.3466 44.1298 25.3466H58.1468C58.3395 25.3466 58.4931 25.1842 58.4738 24.9929C58.2932 23.1952 57.5848 21.7506 56.3489 20.6597C55.0331 19.498 53.3982 18.9172 51.4441 18.9172Z" fill="#9FA0A2"/>
<path id="Vector_4" d="M84.6928 43.9137C81.702 43.9137 79.0502 43.2727 76.7373 41.991C74.4245 40.7091 72.6102 38.9064 71.2942 36.583C69.9782 34.2596 69.3203 31.5757 69.3203 28.5313C69.3203 25.4467 69.9584 22.7027 71.2343 20.2992C72.5503 17.8956 74.3447 16.0329 76.6177 14.711C78.9306 13.349 81.6423 12.668 84.7527 12.668C87.6636 12.668 90.2357 13.3089 92.4688 14.5908C94.7019 15.8727 96.4365 17.6352 97.6727 19.8785C98.9488 22.0817 99.5867 24.5454 99.5867 27.2693C99.5867 27.7099 99.5669 28.1707 99.527 28.6513C99.527 29.0364 99.5142 29.4343 99.4886 29.8451C99.4778 30.0192 99.3321 30.1536 99.1572 30.1536H77.2751C77.0814 30.1536 76.9277 30.3176 76.9468 30.5101C77.1606 32.6643 77.9482 34.368 79.3094 35.6217C80.7849 36.9435 82.5594 37.6045 84.6329 37.6045C86.1881 37.6045 87.4843 37.2639 88.521 36.583C89.5353 35.9037 90.302 35.0465 90.8208 34.0116C90.8793 33.8951 90.9972 33.819 91.1278 33.819H98.2417C98.4653 33.819 98.6259 34.0336 98.5557 34.2455C97.9867 35.9626 97.0942 37.5429 95.8783 38.9865C94.6022 40.5087 93.0071 41.7106 91.0931 42.5918C89.2188 43.4731 87.0854 43.9137 84.6928 43.9137ZM84.7527 18.9172C82.8784 18.9172 81.2236 19.4579 79.788 20.5395C78.4408 21.5169 77.5501 22.9884 77.116 24.9536C77.071 25.1573 77.2291 25.3466 77.4382 25.3466H91.4552C91.6479 25.3466 91.8015 25.1842 91.7824 24.9929C91.6017 23.1952 90.8934 21.7506 89.6575 20.6597C88.3415 19.498 86.7066 18.9172 84.7527 18.9172Z" fill="#9FA0A2"/>
<path id="Vector_5" d="M120.311 43.0673C123.158 43.0673 125.466 40.7489 125.466 37.8891C125.466 35.0293 123.158 32.7109 120.311 32.7109C117.464 32.7109 115.156 35.0293 115.156 37.8891C115.156 40.7489 117.464 43.0673 120.311 43.0673Z" fill="#9FA0A2"/>
</g>
</svg>
