<svg width="201" height="35" viewBox="0 0 201 35" fill="none" xmlns="http://www.w3.org/2000/svg">
<g id="logo">
<g id="Group 182">
<path id="Path 113" d="M65.7599 7.56516H68.8659C69.2183 7.56418 69.5691 7.61298 69.9079 7.71014C70.2363 7.80415 70.5485 7.94744 70.8339 8.13513C71.1167 8.32146 71.373 8.54516 71.5959 8.80014C71.8178 9.05241 71.9972 9.33917 72.1269 9.64914C72.8729 11.4625 73.6252 13.2598 74.3839 15.0411C75.1426 16.8225 75.9012 18.6198 76.6599 20.4331C76.79 20.7287 76.8808 21.04 76.9299 21.3591C76.9685 21.6425 76.9942 21.8931 77.0069 22.1111C77.0405 21.6847 77.1247 21.2637 77.2579 20.8571C77.4176 20.3587 77.6042 19.8694 77.8169 19.3911L81.9259 9.62915C82.0412 9.33928 82.2109 9.07417 82.4259 8.84814C82.661 8.59455 82.9267 8.37117 83.2169 8.18314C83.5145 7.98926 83.8353 7.83371 84.1719 7.72015C84.4977 7.60677 84.8399 7.54796 85.1849 7.54614H88.2909L86.0909 12.7741L88.5409 18.6001C88.7982 19.2048 89.0489 19.7998 89.2929 20.3851C89.5219 20.9077 89.6589 21.4659 89.6979 22.0352C89.7105 21.9325 89.7266 21.8135 89.7459 21.6781C89.7652 21.5428 89.8005 21.3725 89.8519 21.1671C89.9166 20.919 89.994 20.6743 90.0839 20.4341C90.1865 20.1515 90.3279 19.8042 90.5079 19.3922L94.6219 9.63013C94.7363 9.34166 94.9031 9.07689 95.1139 8.84915C95.3439 8.59413 95.6065 8.37052 95.8949 8.18414C96.1925 7.99029 96.5134 7.83472 96.8499 7.72113C97.1757 7.60774 97.518 7.54897 97.8629 7.54715H100.969L92.4419 27.8232H86.9629L84.0109 20.3381C83.9082 20.0681 83.8182 19.7918 83.7409 19.5092C83.6637 19.2263 83.6246 18.9344 83.6249 18.6411C83.6227 18.3592 83.6683 18.0788 83.7599 17.8121C83.5152 18.5068 83.0619 19.6835 82.3999 21.3421C81.7379 23.0008 80.8536 25.1615 79.7469 27.8241H74.2679L65.7599 7.56516Z" fill="white"/>
<path id="Path 114" d="M102.319 7.56202H106.445C106.512 7.56202 106.608 7.73869 106.735 8.09202C106.896 8.58551 107.012 9.0926 107.082 9.60703C107.214 9.21105 107.463 8.86441 107.796 8.61302C108.177 8.31114 108.6 8.06439 109.05 7.88001C109.526 7.6808 110.02 7.52906 110.526 7.42701C110.973 7.33096 111.429 7.27938 111.886 7.27302H111.963C113.338 7.26194 114.7 7.54458 115.957 8.10203C117.166 8.63704 118.26 9.40032 119.179 10.35C121.075 12.327 122.131 14.962 122.126 17.7014C122.121 20.4408 121.054 23.0715 119.15 25.041C118.22 25.9867 117.116 26.7433 115.899 27.269C114.633 27.8196 113.266 28.0989 111.886 28.089C111.086 28.0865 110.291 27.9562 109.532 27.703C108.738 27.4404 108.008 27.0131 107.39 26.449V34.359H102.316L102.319 7.56202ZM111.869 12.308C110.987 12.3037 110.116 12.5123 109.332 12.916C108.563 13.3025 107.898 13.868 107.393 14.565V20.777C107.908 21.4815 108.581 22.0547 109.359 22.4503C110.137 22.8459 110.996 23.0527 111.869 23.054C112.579 23.0612 113.283 22.9163 113.933 22.629C114.551 22.3554 115.108 21.9622 115.573 21.472C116.04 20.9766 116.41 20.3975 116.663 19.765C117.19 18.4226 117.19 16.9304 116.663 15.588C116.413 14.954 116.043 14.3744 115.573 13.881C115.106 13.3958 114.549 13.006 113.933 12.733C113.283 12.4469 112.579 12.303 111.869 12.311V12.308Z" fill="white"/>
<path id="Path 115" d="M129.251 7.56199C129.32 7.7106 129.397 7.85545 129.482 7.99598C129.618 8.25399 129.685 8.54328 129.675 8.835V9.99199C129.796 9.64934 129.994 9.33906 130.254 9.085C130.532 8.81003 130.847 8.5745 131.19 8.38499C131.556 8.18024 131.941 8.00922 132.338 7.874C132.734 7.73724 133.136 7.6214 133.544 7.52699C133.91 7.44157 134.28 7.37714 134.653 7.334C134.947 7.29864 135.243 7.27926 135.54 7.27598C136.911 7.26437 138.269 7.54387 139.524 8.09599C140.723 8.62264 141.805 9.38352 142.707 10.334C143.61 11.2972 144.323 12.4231 144.807 13.652C145.823 16.254 145.823 19.143 144.807 21.745C144.322 22.9705 143.609 24.0932 142.707 25.054C141.806 26.0045 140.723 26.7654 139.524 27.292C137.835 28.0285 135.973 28.2759 134.151 28.006C133.642 27.9286 133.144 27.7944 132.666 27.606C132.13 27.3947 131.621 27.1194 131.151 26.786C130.6 26.393 130.104 25.9289 129.675 25.406V34.628H126.53V7.56199H129.251ZM135.54 25.022C136.503 25.0335 137.458 24.8395 138.34 24.453C139.169 24.0876 139.914 23.5556 140.529 22.89C141.15 22.2108 141.635 21.4184 141.957 20.556C142.638 18.7067 142.638 16.6752 141.957 14.826C141.635 13.9636 141.15 13.1712 140.529 12.492C139.914 11.8266 139.169 11.2946 138.34 10.929C137.458 10.5426 136.503 10.3486 135.54 10.36C134.448 10.3598 133.368 10.5831 132.366 11.016C131.357 11.4442 130.443 12.0671 129.675 12.849V22.032C130.02 22.5047 130.423 22.9324 130.875 23.305C131.316 23.6719 131.798 23.9857 132.312 24.24C132.82 24.4909 133.353 24.6851 133.904 24.819C134.439 24.9528 134.988 25.022 135.54 25.025V25.022Z" fill="white"/>
<path id="Path 116" d="M148.253 17.6939C148.245 16.3045 148.524 14.9285 149.073 13.6519C150.135 11.1499 152.127 9.15794 154.629 8.09595C155.911 7.55535 157.288 7.27686 158.679 7.27686C160.07 7.27686 161.447 7.55535 162.729 8.09595C165.231 9.15777 167.223 11.1498 168.285 13.6519C168.826 14.9337 169.104 16.3108 169.104 17.702C169.104 19.0931 168.826 20.4702 168.285 21.752C167.223 24.2542 165.231 26.2463 162.729 27.308C161.447 27.8487 160.07 28.1272 158.679 28.1272C157.288 28.1272 155.911 27.8487 154.629 27.308C152.127 26.2461 150.135 24.2541 149.073 21.752C148.523 20.4701 148.244 19.0886 148.253 17.6939ZM151.34 17.6939C151.333 18.6786 151.53 19.654 151.919 20.559C152.289 21.4302 152.823 22.2224 153.492 22.8929C154.159 23.559 154.948 24.0898 155.817 24.456C156.724 24.8317 157.695 25.0251 158.677 25.0251C159.658 25.0251 160.63 24.8317 161.537 24.456C163.102 23.8007 164.391 22.623 165.185 21.1236C165.978 19.6242 166.227 17.8959 165.889 16.2334C165.551 14.5709 164.647 13.0771 163.331 12.0066C162.015 10.9361 160.368 10.3552 158.672 10.3629C157.691 10.3558 156.72 10.5495 155.817 10.9319C154.948 11.2984 154.159 11.8291 153.492 12.495C152.823 13.1656 152.29 13.9578 151.919 14.8289C151.531 15.7339 151.333 16.7093 151.34 17.6939Z" fill="white"/>
<path id="Path 117" d="M171.906 17.6939C171.898 16.3045 172.177 14.9285 172.726 13.6519C173.788 11.1499 175.78 9.15794 178.282 8.09595C179.564 7.55535 180.941 7.27686 182.332 7.27686C183.723 7.27686 185.1 7.55535 186.382 8.09595C188.884 9.15777 190.876 11.1498 191.938 13.6519C192.479 14.9337 192.757 16.3108 192.757 17.702C192.757 19.0931 192.479 20.4702 191.938 21.752C190.876 24.2542 188.884 26.2463 186.382 27.308C185.1 27.8487 183.723 28.1272 182.332 28.1272C180.941 28.1272 179.564 27.8487 178.282 27.308C175.78 26.2461 173.788 24.2541 172.726 21.752C172.176 20.4701 171.897 19.0886 171.906 17.6939ZM174.993 17.6939C174.986 18.6786 175.184 19.654 175.572 20.559C175.942 21.4301 176.476 22.2223 177.144 22.8929C177.811 23.5589 178.6 24.0896 179.469 24.456C180.372 24.8386 181.343 25.0322 182.324 25.025C183.53 25.0247 184.717 24.7272 185.78 24.1588C186.843 23.5905 187.75 22.7687 188.42 21.7664C189.09 20.7641 189.503 19.612 189.622 18.4122C189.74 17.2124 189.561 16.0018 189.101 14.8876C188.64 13.7734 187.912 12.7899 186.981 12.0242C186.049 11.2585 184.944 10.7341 183.761 10.4976C182.579 10.261 181.357 10.3195 180.203 10.6678C179.048 11.0162 177.998 11.6438 177.144 12.495C176.476 13.1657 175.942 13.9579 175.572 14.8289C175.184 15.7339 174.987 16.7093 174.993 17.6939Z" fill="white"/>
<path id="Path 118" d="M200.516 0.176025V27.822H197.371V0.176025H200.516Z" fill="white"/>
</g>
<g id="Group 183">
<path id="Path 119" d="M26.9907 15.011L16.3707 4.39096C14.5722 2.59258 12.133 1.58228 9.58969 1.58228C7.04634 1.58228 4.60715 2.59258 2.80869 4.39096C1.01031 6.18942 0 8.62862 0 11.172C0 13.7153 1.01031 16.1545 2.80869 17.953L13.4287 28.573C15.2272 30.3713 17.6663 31.3817 20.2097 31.3817C22.753 31.3817 25.1922 30.3713 26.9907 28.573C28.7891 26.7745 29.7994 24.3353 29.7994 21.792C29.7994 19.2486 28.7891 16.8094 26.9907 15.011Z" fill="#5CC9F6"/>
<path id="Path 120" d="M57.9507 11.205C56.1522 9.40658 53.713 8.39624 51.1696 8.39624C48.6263 8.39624 46.1871 9.40658 44.3886 11.205C43.498 12.0955 42.7915 13.1527 42.3095 14.3163C41.8275 15.4799 41.5795 16.727 41.5795 17.9865C41.5795 19.2459 41.8275 20.493 42.3095 21.6566C42.7915 22.8202 43.498 23.8774 44.3886 24.7679C46.1871 26.5663 48.6263 27.5766 51.1696 27.5766C53.713 27.5766 56.1522 26.5663 57.9507 24.7679C58.8413 23.8774 59.5478 22.8202 60.0298 21.6566C60.5118 20.493 60.7599 19.2459 60.7599 17.9865C60.7599 16.727 60.5118 15.4799 60.0298 14.3163C59.5478 13.1527 58.8413 12.0955 57.9507 11.205Z" fill="#FA8807"/>
<path id="Path 121" d="M17.3486 11.1771L13.3836 15.1421L13.3666 15.1241C11.8169 16.6341 9.80201 17.5758 7.64944 17.796C5.49686 18.0162 3.33308 17.502 1.50964 16.3371C1.88343 16.921 2.3193 17.4629 2.80964 17.9531L7.08965 22.2331L7.13264 22.2171L13.4796 28.5641L30.8666 11.1771C29.9791 10.2893 28.9254 9.58502 27.7657 9.10452C26.606 8.62403 25.363 8.37671 24.1076 8.37671C22.8523 8.37671 21.6093 8.62403 20.4496 9.10452C19.2898 9.58502 18.2361 10.2893 17.3486 11.1771Z" fill="#00AEEB"/>
<path id="Path 122" d="M51.1287 4.47598L51.1197 4.46698C50.2436 3.56168 49.1948 2.84126 48.0355 2.34826C46.8762 1.85526 45.6297 1.59969 44.3699 1.59671C43.1101 1.59372 41.8625 1.84336 40.7008 2.33087C39.5392 2.81837 38.4871 3.53386 37.6067 4.43499L20.2287 21.813C18.5371 23.5034 16.275 24.5007 13.8861 24.6095C11.4972 24.7183 9.15386 23.9306 7.31567 22.401L13.4797 28.565L13.4867 28.559C15.2829 30.3551 17.719 31.3642 20.2592 31.3642C22.7993 31.3642 25.2355 30.3551 27.0317 28.559L43.9567 11.634L43.9847 11.642C44.1157 11.494 44.2497 11.348 44.3917 11.206C45.5736 10.0227 47.0447 9.16932 48.6587 8.73074C50.2727 8.29216 51.9734 8.28363 53.5917 8.70599C53.1524 7.10582 52.3035 5.64783 51.1287 4.47598Z" fill="#0080CA"/>
<path id="Path 123" d="M53.5857 8.70708C51.9674 8.28472 50.2668 8.29325 48.6528 8.73183C47.0388 9.17041 45.5677 10.0238 44.3857 11.2071C44.2437 11.3491 44.1097 11.4951 43.9787 11.6431L43.9517 11.6351L27.0267 28.5601C26.9957 28.5911 26.9637 28.6191 26.9337 28.6491L26.9447 28.6611C28.7432 30.4595 31.1824 31.4698 33.7257 31.4698C36.2691 31.4698 38.7083 30.4595 40.5067 28.6611L51.1267 18.0411C52.3263 16.8422 53.186 15.3464 53.618 13.7065C54.05 12.0665 54.0389 10.3413 53.5857 8.70708Z" fill="#EE5913"/>
<path id="Ellipse 4" d="M25.0228 7.53793C25.8666 7.53793 26.5508 6.85382 26.5508 6.00993C26.5508 5.16604 25.8666 4.48193 25.0228 4.48193C24.1789 4.48193 23.4948 5.16604 23.4948 6.00993C23.4948 6.85382 24.1789 7.53793 25.0228 7.53793Z" fill="#5CC9F6"/>
<path id="Ellipse 5" d="M21.6497 4.56693C22.1909 4.56693 22.6297 4.12817 22.6297 3.58693C22.6297 3.04569 22.1909 2.60693 21.6497 2.60693C21.1084 2.60693 20.6697 3.04569 20.6697 3.58693C20.6697 4.12817 21.1084 4.56693 21.6497 4.56693Z" fill="#5CC9F6"/>
<path id="Ellipse 6" d="M23.8137 1.96C24.355 1.96 24.7937 1.52124 24.7937 0.98C24.7937 0.438761 24.355 0 23.8137 0C23.2725 0 22.8337 0.438761 22.8337 0.98C22.8337 1.52124 23.2725 1.96 23.8137 1.96Z" fill="#5CC9F6"/>
</g>
</g>
</svg>
